<svg width="850" height="850" viewBox="0 0 850 850" xmlns="http://www.w3.org/2000/svg">
  <style>
    .node {
      fill-opacity: 0.6;
      transition: all 0.5s ease;
    }
    .node:hover {
      fill-opacity: 0.9;
    }
    .connection {
      stroke-opacity: 0.2;
      transition: all 0.5s ease;
    }
    .connection:hover {
      stroke-opacity: 0.4;
    }
    @media (prefers-color-scheme: dark) {
      .node {
        fill: #e5d049;
      }
      .connection {
        stroke: #ede8d9;
      }
    }
    @media (prefers-color-scheme: light) {
      .node {
        fill: #e5d049;
      }
      .connection {
        stroke: #253943;
      }
    }
  </style>
  
  <!-- Neural Network Pattern -->
  <!-- Layer 1 -->
  <circle class="node" cx="150" cy="120" r="8" />
  <circle class="node" cx="150" cy="320" r="6" />
  <circle class="node" cx="150" cy="520" r="9" />
  <circle class="node" cx="150" cy="720" r="7" />
  
  <!-- Layer 2 -->
  <circle class="node" cx="350" cy="180" r="7" />
  <circle class="node" cx="350" cy="360" r="8" />
  <circle class="node" cx="350" cy="540" r="6" />
  <circle class="node" cx="350" cy="720" r="9" />
  
  <!-- Layer 3 -->
  <circle class="node" cx="550" cy="120" r="8" />
  <circle class="node" cx="550" cy="320" r="7" />
  <circle class="node" cx="550" cy="520" r="9" />
  <circle class="node" cx="550" cy="720" r="6" />
  
  <!-- Layer 4 -->
  <circle class="node" cx="750" cy="220" r="7" />
  <circle class="node" cx="750" cy="420" r="9" />
  <circle class="node" cx="750" cy="620" r="8" />
  
  <!-- Additional nodes for complexity -->
  <circle class="node" cx="250" cy="250" r="5" />
  <circle class="node" cx="450" cy="150" r="4" />
  <circle class="node" cx="650" cy="350" r="6" />
  <circle class="node" cx="250" cy="650" r="7" />
  <circle class="node" cx="450" cy="450" r="5" />
  <circle class="node" cx="650" cy="650" r="4" />
  
  <!-- Connections -->
  <line class="connection" x1="150" y1="120" x2="350" y2="180" stroke-width="1.5" />
  <line class="connection" x1="150" y1="120" x2="350" y2="360" stroke-width="1.5" />
  <line class="connection" x1="150" y1="320" x2="350" y2="180" stroke-width="1.5" />
  <line class="connection" x1="150" y1="320" x2="350" y2="360" stroke-width="1.5" />
  <line class="connection" x1="150" y1="320" x2="350" y2="540" stroke-width="1.5" />
  <line class="connection" x1="150" y1="520" x2="350" y2="360" stroke-width="1.5" />
  <line class="connection" x1="150" y1="520" x2="350" y2="540" stroke-width="1.5" />
  <line class="connection" x1="150" y1="520" x2="350" y2="720" stroke-width="1.5" />
  <line class="connection" x1="150" y1="720" x2="350" y2="540" stroke-width="1.5" />
  <line class="connection" x1="150" y1="720" x2="350" y2="720" stroke-width="1.5" />
  
  <line class="connection" x1="350" y1="180" x2="550" y2="120" stroke-width="1.5" />
  <line class="connection" x1="350" y1="180" x2="550" y2="320" stroke-width="1.5" />
  <line class="connection" x1="350" y1="360" x2="550" y2="120" stroke-width="1.5" />
  <line class="connection" x1="350" y1="360" x2="550" y2="320" stroke-width="1.5" />
  <line class="connection" x1="350" y1="360" x2="550" y2="520" stroke-width="1.5" />
  <line class="connection" x1="350" y1="540" x2="550" y2="320" stroke-width="1.5" />
  <line class="connection" x1="350" y1="540" x2="550" y2="520" stroke-width="1.5" />
  <line class="connection" x1="350" y1="540" x2="550" y2="720" stroke-width="1.5" />
  <line class="connection" x1="350" y1="720" x2="550" y2="520" stroke-width="1.5" />
  <line class="connection" x1="350" y1="720" x2="550" y2="720" stroke-width="1.5" />
  
  <line class="connection" x1="550" y1="120" x2="750" y2="220" stroke-width="1.5" />
  <line class="connection" x1="550" y1="320" x2="750" y2="220" stroke-width="1.5" />
  <line class="connection" x1="550" y1="320" x2="750" y2="420" stroke-width="1.5" />
  <line class="connection" x1="550" y1="520" x2="750" y2="420" stroke-width="1.5" />
  <line class="connection" x1="550" y1="520" x2="750" y2="620" stroke-width="1.5" />
  <line class="connection" x1="550" y1="720" x2="750" y2="620" stroke-width="1.5" />
  
  <!-- Additional connections -->
  <line class="connection" x1="250" y1="250" x2="450" y2="150" stroke-width="1" />
  <line class="connection" x1="250" y1="250" x2="450" y2="450" stroke-width="1" />
  <line class="connection" x1="450" y1="150" x2="650" y2="350" stroke-width="1" />
  <line class="connection" x1="450" y1="450" x2="650" y2="350" stroke-width="1" />
  <line class="connection" x1="450" y1="450" x2="650" y2="650" stroke-width="1" />
  <line class="connection" x1="250" y1="650" x2="450" y2="450" stroke-width="1" />
  <line class="connection" x1="250" y1="650" x2="650" y2="650" stroke-width="1" />
</svg>